<?xml version="1.0" ?><!-- Uploaded to: SVG Repo, www.svgrepo.com, Generator: SVG Repo Mixer Tools -->
<svg fill="#000000" width="800px" height="800px" viewBox="0 0 16 16" data-name="Layer 1" id="Layer_1" xmlns="http://www.w3.org/2000/svg"><title/><path d="M8,1A7,7,0,1,1,1,8,7.008,7.008,0,0,1,8,1M8,0a8,8,0,1,0,8,8A8,8,0,0,0,8,0Z"/><path d="M11.5,5.42h-.794l.561-.58a.529.529,0,0,0,0-.732.488.488,0,0,0-.708,0L9.141,5.572a.521.521,0,0,0-.108.168.545.545,0,0,0-.039.2h0v0a.53.53,0,0,0,.038.2.513.513,0,0,0,.271.28.478.478,0,0,0,.181.038l.01,0h2a.51.51,0,0,0,.5-.518h0A.51.51,0,0,0,11.5,5.42Z"/><path d="M7.006,5.938h0a.545.545,0,0,0-.039-.2.521.521,0,0,0-.108-.168L5.442,4.108a.488.488,0,0,0-.708,0,.529.529,0,0,0,0,.732l.561.58H4.5a.51.51,0,0,0-.5.518H4a.51.51,0,0,0,.5.518h2.01A.5.5,0,0,0,6.7,6.416a.51.51,0,0,0,.271-.28.53.53,0,0,0,.038-.2Z"/><path d="M3,7.956a5,5,0,0,0,10,0Zm5,3.873A3.869,3.869,0,0,1,4.27,8.942h7.46A3.869,3.869,0,0,1,8,11.829Z"/></svg>